<?xml version="1.0" encoding="utf-8"?>
<svg version="1.1" id="Capa_1" x="0px" y="0px" width="88.885px" height="37.375px" viewBox="0 0 88.885 37.375" enable-background="new 0 0 88.885 37.375" xmlns="http://www.w3.org/2000/svg">
  <rect x="-5.046" y="-2.206" width="99.127" height="41.701" style="fill: rgb(24, 23, 116);"/>
  <g>
    <path fill="#FFFFFF" d="M16.542,30.446l-1.916,7.148h-0.548l1.916-7.148H16.542z M23.032,36.106 c0.291-0.134,0.544-0.316,0.757-0.548c0.213-0.232,0.379-0.496,0.5-0.792c0.119-0.296,0.179-0.604,0.179-0.926 c0-0.313-0.058-0.616-0.172-0.91c-0.114-0.293-0.275-0.56-0.481-0.798c-0.207-0.239-0.456-0.43-0.748-0.572 c-0.292-0.142-0.614-0.213-0.967-0.213c-0.349,0-0.669,0.067-0.961,0.203s-0.544,0.319-0.757,0.551 c-0.214,0.232-0.381,0.496-0.503,0.792s-0.182,0.606-0.182,0.933c0,0.313,0.058,0.616,0.172,0.912 c0.115,0.297,0.277,0.563,0.485,0.799c0.209,0.237,0.459,0.424,0.751,0.563c0.292,0.138,0.616,0.206,0.974,0.206 C22.423,36.306,22.74,36.239,23.032,36.106 M20.753,33.234c0.063-0.193,0.153-0.367,0.272-0.523 c0.119-0.156,0.267-0.281,0.444-0.375c0.177-0.095,0.383-0.142,0.617-0.142c0.22,0,0.419,0.045,0.595,0.135 c0.177,0.089,0.326,0.211,0.448,0.364c0.122,0.154,0.215,0.328,0.282,0.523c0.066,0.195,0.101,0.398,0.101,0.609 c0,0.198-0.032,0.395-0.093,0.589c-0.062,0.195-0.153,0.372-0.272,0.53c-0.119,0.158-0.269,0.285-0.447,0.379 c-0.18,0.094-0.384,0.142-0.613,0.142c-0.226,0-0.426-0.045-0.603-0.135s-0.327-0.212-0.448-0.365s-0.214-0.329-0.278-0.526 s-0.097-0.402-0.097-0.613C20.66,33.625,20.691,33.427,20.753,33.234 M29.471,36.201c0.204-0.094,0.382-0.226,0.533-0.396 c0.152-0.169,0.27-0.365,0.355-0.588s0.127-0.462,0.127-0.716s-0.038-0.492-0.113-0.715c-0.076-0.223-0.185-0.42-0.324-0.593 s-0.306-0.307-0.499-0.405c-0.193-0.098-0.406-0.146-0.641-0.146c-0.28,0-0.524,0.063-0.733,0.186 c-0.208,0.125-0.378,0.295-0.506,0.511v-2.094h-0.923v5.026h0.806v-0.626c0.124,0.216,0.293,0.386,0.51,0.51 c0.216,0.124,0.461,0.186,0.736,0.186C29.043,36.34,29.267,36.293,29.471,36.201 M28.28,35.511 c-0.089-0.029-0.176-0.069-0.258-0.122c-0.083-0.051-0.155-0.112-0.217-0.185c-0.062-0.072-0.107-0.153-0.134-0.244v-0.844 c0.055-0.131,0.13-0.248,0.224-0.352c0.094-0.104,0.202-0.186,0.323-0.246c0.122-0.062,0.25-0.092,0.382-0.092 c0.188,0,0.353,0.05,0.493,0.149c0.14,0.099,0.25,0.23,0.331,0.395s0.121,0.344,0.121,0.537c0,0.14-0.024,0.273-0.072,0.402 c-0.048,0.128-0.117,0.239-0.207,0.334c-0.089,0.095-0.195,0.17-0.316,0.227s-0.256,0.084-0.403,0.084 C28.458,35.555,28.369,35.54,28.28,35.511 M31.028,35.792c0.108,0.17,0.257,0.304,0.447,0.401c0.191,0.098,0.405,0.146,0.644,0.146 c0.243,0,0.482-0.055,0.716-0.165s0.429-0.267,0.585-0.469l0.021,0.187c0.023,0.119,0.082,0.221,0.176,0.303 c0.094,0.083,0.233,0.124,0.416,0.124c0.046,0,0.103-0.004,0.169-0.014c0.066-0.01,0.141-0.021,0.224-0.035v-0.75 c-0.078-0.009-0.134-0.034-0.168-0.074c-0.035-0.041-0.052-0.109-0.052-0.204v-1.134c0-0.471-0.144-0.833-0.431-1.087 c-0.287-0.253-0.688-0.38-1.202-0.38c-0.275,0-0.538,0.039-0.789,0.117s-0.495,0.195-0.733,0.352l0.296,0.605 c0.197-0.133,0.386-0.233,0.564-0.303c0.179-0.068,0.367-0.104,0.564-0.104c0.267,0,0.467,0.062,0.603,0.183 c0.136,0.122,0.203,0.296,0.203,0.521v0.191c-0.115-0.051-0.25-0.087-0.406-0.11c-0.156-0.022-0.31-0.034-0.461-0.034 c-0.303,0-0.572,0.048-0.806,0.143c-0.234,0.096-0.417,0.23-0.547,0.405c-0.131,0.175-0.197,0.378-0.197,0.608 C30.865,35.431,30.92,35.622,31.028,35.792 M32.787,35.588c-0.133,0.052-0.269,0.077-0.406,0.077c-0.133,0-0.248-0.024-0.344-0.074 c-0.096-0.049-0.17-0.113-0.221-0.194c-0.05-0.08-0.076-0.165-0.076-0.255c0-0.166,0.077-0.299,0.231-0.399 c0.154-0.102,0.35-0.151,0.589-0.151c0.115,0,0.236,0.013,0.365,0.037c0.129,0.024,0.248,0.06,0.358,0.104v0.355 c0,0.045-0.016,0.094-0.048,0.147c-0.032,0.054-0.073,0.107-0.124,0.161C33.028,35.473,32.92,35.537,32.787,35.588 M38.42,34.045 c0-0.173-0.015-0.343-0.044-0.511s-0.083-0.319-0.159-0.453c-0.075-0.134-0.186-0.24-0.33-0.319c-0.145-0.08-0.33-0.12-0.555-0.12 c-0.207,0-0.402,0.028-0.588,0.086c-0.186,0.057-0.35,0.138-0.493,0.244c-0.143,0.107-0.259,0.237-0.351,0.393v-0.667h-0.833v3.573 h0.922v-2.083c0.046-0.144,0.119-0.27,0.221-0.379c0.101-0.11,0.214-0.197,0.341-0.26c0.126-0.063,0.251-0.094,0.375-0.094 c0.179,0,0.319,0.065,0.42,0.196c0.101,0.132,0.152,0.34,0.152,0.625v1.994h0.922V34.045z M41.626,36.22 c0.213-0.081,0.399-0.191,0.558-0.335c0.158-0.142,0.279-0.303,0.361-0.481l-0.901-0.275c-0.037,0.083-0.095,0.156-0.172,0.221 c-0.078,0.064-0.167,0.114-0.265,0.151c-0.099,0.037-0.203,0.055-0.313,0.055c-0.175,0-0.333-0.046-0.476-0.139 c-0.143-0.092-0.255-0.218-0.341-0.378c-0.085-0.159-0.127-0.343-0.127-0.55c0-0.212,0.042-0.398,0.124-0.558 c0.083-0.16,0.197-0.284,0.341-0.372s0.304-0.132,0.479-0.132c0.156,0,0.298,0.036,0.427,0.107c0.129,0.071,0.232,0.173,0.31,0.307 l0.902-0.276c-0.137-0.275-0.347-0.498-0.626-0.668c-0.28-0.169-0.616-0.255-1.006-0.255s-0.728,0.084-1.013,0.252 c-0.285,0.169-0.503,0.392-0.657,0.671s-0.231,0.587-0.231,0.924c0,0.244,0.045,0.479,0.135,0.701 c0.089,0.223,0.216,0.421,0.382,0.596s0.365,0.311,0.599,0.408s0.498,0.146,0.792,0.146C41.172,36.34,41.412,36.3,41.626,36.22 M45.533,36.193c0.235-0.098,0.433-0.232,0.596-0.405c0.163-0.172,0.287-0.37,0.372-0.593s0.127-0.456,0.127-0.701 c0-0.249-0.042-0.485-0.127-0.708s-0.209-0.42-0.375-0.593c-0.165-0.173-0.364-0.307-0.595-0.405 c-0.232-0.098-0.495-0.146-0.789-0.146s-0.558,0.049-0.792,0.146c-0.234,0.099-0.433,0.232-0.596,0.405s-0.288,0.37-0.375,0.593 s-0.13,0.459-0.13,0.708c0,0.245,0.043,0.479,0.13,0.701s0.212,0.421,0.375,0.593c0.163,0.173,0.361,0.308,0.596,0.405 c0.234,0.098,0.498,0.146,0.792,0.146S45.3,36.291,45.533,36.193 M43.922,33.943c0.083-0.159,0.196-0.285,0.338-0.378 c0.142-0.092,0.303-0.139,0.482-0.139c0.174,0,0.333,0.046,0.475,0.136c0.142,0.09,0.255,0.216,0.341,0.378 c0.084,0.162,0.127,0.345,0.127,0.548c0,0.207-0.043,0.391-0.127,0.55c-0.086,0.16-0.2,0.286-0.341,0.378 c-0.142,0.093-0.301,0.139-0.475,0.139c-0.179,0-0.34-0.045-0.482-0.135s-0.255-0.215-0.338-0.375 c-0.083-0.16-0.124-0.344-0.124-0.551S43.84,34.104,43.922,33.943 M48.809,35.213c0.084,0.225,0.203,0.421,0.357,0.59 c0.154,0.167,0.336,0.299,0.545,0.395c0.209,0.095,0.436,0.143,0.684,0.143s0.486-0.06,0.713-0.179 c0.229-0.12,0.408-0.291,0.541-0.517l0.014,0.228c0.014,0.133,0.074,0.241,0.184,0.323c0.107,0.083,0.244,0.124,0.408,0.124 c0.102,0,0.232-0.017,0.393-0.049v-0.75c-0.076-0.009-0.133-0.034-0.164-0.076c-0.033-0.041-0.049-0.109-0.049-0.206v-3.994h-0.922 v2.094c-0.121-0.202-0.287-0.369-0.5-0.5s-0.453-0.196-0.719-0.196c-0.313,0-0.592,0.082-0.834,0.245 c-0.244,0.164-0.434,0.385-0.572,0.664c-0.137,0.279-0.207,0.592-0.207,0.938C48.68,34.746,48.723,34.988,48.809,35.213 M51.369,35.2c-0.061,0.075-0.133,0.138-0.213,0.188c-0.08,0.053-0.166,0.093-0.254,0.122c-0.09,0.029-0.18,0.044-0.266,0.044 c-0.143,0-0.275-0.027-0.396-0.081s-0.229-0.128-0.32-0.223s-0.162-0.206-0.209-0.334c-0.049-0.128-0.072-0.266-0.072-0.409 s0.021-0.281,0.064-0.412c0.043-0.13,0.107-0.245,0.193-0.344c0.084-0.1,0.184-0.179,0.299-0.237s0.244-0.088,0.387-0.088 c0.123,0,0.248,0.03,0.371,0.092c0.123,0.061,0.236,0.143,0.338,0.246c0.1,0.104,0.174,0.221,0.221,0.352v0.844 C51.479,35.046,51.432,35.126,51.369,35.2 M53.256,35.792c0.109,0.17,0.258,0.304,0.449,0.401c0.189,0.098,0.404,0.146,0.643,0.146 c0.244,0,0.482-0.055,0.717-0.165s0.43-0.267,0.586-0.469l0.02,0.187c0.023,0.119,0.082,0.221,0.176,0.303 c0.094,0.083,0.232,0.124,0.416,0.124c0.047,0,0.104-0.004,0.17-0.014s0.141-0.021,0.223-0.035v-0.75 c-0.076-0.009-0.133-0.034-0.168-0.074c-0.035-0.041-0.053-0.109-0.053-0.204v-1.134c0-0.471-0.143-0.833-0.43-1.087 c-0.287-0.253-0.688-0.38-1.201-0.38c-0.275,0-0.539,0.039-0.789,0.117s-0.494,0.195-0.732,0.352l0.295,0.605 c0.197-0.133,0.387-0.233,0.566-0.303c0.178-0.068,0.367-0.104,0.564-0.104c0.266,0,0.467,0.062,0.602,0.183 c0.135,0.122,0.203,0.296,0.203,0.521v0.191c-0.115-0.051-0.25-0.087-0.406-0.11c-0.156-0.022-0.311-0.034-0.461-0.034 c-0.303,0-0.572,0.048-0.807,0.143c-0.234,0.096-0.416,0.23-0.547,0.405s-0.197,0.378-0.197,0.608 C53.094,35.431,53.149,35.622,53.256,35.792 M55.016,35.588c-0.133,0.052-0.268,0.077-0.406,0.077 c-0.133,0-0.248-0.024-0.344-0.074c-0.096-0.049-0.17-0.113-0.221-0.194c-0.051-0.08-0.076-0.165-0.076-0.255 c0-0.166,0.078-0.299,0.23-0.399c0.154-0.102,0.352-0.151,0.59-0.151c0.113,0,0.236,0.013,0.365,0.037 c0.127,0.024,0.248,0.06,0.357,0.104v0.355c0,0.045-0.016,0.094-0.049,0.147c-0.031,0.054-0.072,0.107-0.123,0.161 C55.258,35.473,55.149,35.537,55.016,35.588 M59.678,36.042c0.262-0.199,0.393-0.475,0.393-0.827c0-0.217-0.051-0.388-0.15-0.512 c-0.102-0.124-0.252-0.229-0.453-0.315c-0.199-0.086-0.443-0.169-0.732-0.251c-0.143-0.045-0.262-0.086-0.361-0.121 c-0.098-0.037-0.172-0.078-0.221-0.126c-0.047-0.047-0.072-0.114-0.072-0.2c0-0.095,0.027-0.168,0.08-0.22s0.121-0.09,0.207-0.112 c0.084-0.022,0.174-0.033,0.271-0.033c0.17,0,0.338,0.033,0.502,0.1c0.166,0.066,0.34,0.171,0.523,0.313l0.373-0.585 c-0.189-0.179-0.398-0.309-0.627-0.389c-0.23-0.08-0.473-0.121-0.73-0.121c-0.293,0-0.549,0.048-0.768,0.143 c-0.219,0.096-0.389,0.229-0.51,0.398s-0.182,0.372-0.182,0.608c0,0.194,0.043,0.354,0.133,0.479 c0.09,0.124,0.225,0.228,0.404,0.309c0.178,0.082,0.4,0.166,0.668,0.252c0.16,0.045,0.297,0.086,0.408,0.122 c0.113,0.036,0.199,0.078,0.26,0.126c0.059,0.047,0.088,0.114,0.088,0.2c0,0.124-0.053,0.217-0.162,0.279 c-0.107,0.062-0.25,0.093-0.43,0.093c-0.193,0-0.395-0.041-0.602-0.124c-0.209-0.083-0.422-0.211-0.639-0.386l-0.33,0.599 c0.203,0.198,0.443,0.348,0.725,0.448c0.279,0.101,0.572,0.151,0.881,0.151C59.067,36.34,59.416,36.24,59.678,36.042 M62.571,36.271h0.924v-2.713h1.012v2.713h0.922v-3.415h-1.934v-0.255c0-0.114,0.021-0.221,0.064-0.316 c0.043-0.097,0.111-0.175,0.203-0.234s0.203-0.09,0.338-0.09c0.164,0,0.328,0.032,0.488,0.097c0.162,0.064,0.301,0.149,0.42,0.255 l0.365-0.689c-0.129-0.087-0.264-0.165-0.402-0.233c-0.141-0.069-0.287-0.121-0.441-0.158s-0.318-0.056-0.492-0.056 c-0.229,0-0.436,0.038-0.615,0.114c-0.182,0.075-0.336,0.181-0.463,0.316c-0.125,0.136-0.223,0.291-0.289,0.465 c-0.066,0.175-0.1,0.363-0.1,0.564v0.221h-0.475v0.702h0.475V36.271z M69.615,34.045c0-0.173-0.016-0.343-0.045-0.511 s-0.082-0.319-0.158-0.453s-0.186-0.24-0.33-0.319c-0.145-0.08-0.33-0.12-0.555-0.12c-0.207,0-0.402,0.028-0.59,0.086 c-0.186,0.057-0.35,0.138-0.492,0.244c-0.141,0.107-0.258,0.237-0.35,0.393v-0.667h-0.834v3.573h0.922v-2.083 c0.047-0.144,0.121-0.27,0.221-0.379c0.102-0.11,0.215-0.197,0.342-0.26c0.125-0.063,0.25-0.094,0.375-0.094 c0.178,0,0.318,0.065,0.42,0.196c0.102,0.132,0.152,0.34,0.152,0.625v1.994h0.922V34.045z M72.369,35.362 c-0.055,0.022-0.129,0.051-0.221,0.082c-0.092,0.032-0.186,0.049-0.281,0.049s-0.178-0.027-0.24-0.081 c-0.066-0.055-0.1-0.144-0.105-0.266v-1.74h0.758v-0.709h-0.758v-1.171H70.6v1.171h-0.475v0.709H70.6v2.054 c0,0.209,0.043,0.379,0.127,0.509c0.086,0.129,0.199,0.224,0.342,0.282s0.299,0.089,0.469,0.089c0.127,0,0.256-0.013,0.381-0.038 c0.127-0.024,0.246-0.058,0.355-0.1c0.109-0.041,0.203-0.078,0.283-0.11L72.369,35.362z M75.36,36.22 c0.219-0.081,0.41-0.191,0.574-0.335c0.162-0.142,0.287-0.305,0.375-0.488l-0.791-0.221c-0.061,0.147-0.172,0.266-0.336,0.355 c-0.162,0.089-0.336,0.134-0.52,0.134c-0.16,0-0.311-0.035-0.451-0.104c-0.139-0.069-0.254-0.172-0.344-0.306 c-0.09-0.135-0.143-0.292-0.162-0.472h2.789c0.006-0.036,0.01-0.083,0.014-0.139c0.006-0.058,0.008-0.113,0.008-0.168 c0-0.323-0.074-0.624-0.225-0.903c-0.148-0.28-0.363-0.505-0.643-0.676c-0.281-0.17-0.619-0.256-1.014-0.256 c-0.391,0-0.729,0.086-1.016,0.255c-0.287,0.171-0.508,0.396-0.66,0.679c-0.154,0.281-0.23,0.593-0.23,0.933 c0,0.245,0.045,0.479,0.133,0.698c0.09,0.221,0.219,0.415,0.383,0.586c0.166,0.17,0.365,0.304,0.6,0.401s0.494,0.146,0.785,0.146 C74.895,36.34,75.139,36.3,75.36,36.22 M73.84,33.73c0.086-0.132,0.195-0.235,0.33-0.31s0.287-0.111,0.451-0.111 c0.17,0,0.324,0.037,0.461,0.111c0.139,0.074,0.25,0.178,0.336,0.31c0.084,0.132,0.135,0.288,0.154,0.468h-1.887 C73.703,34.019,73.754,33.862,73.84,33.73 M79.481,36.22c0.213-0.081,0.398-0.191,0.557-0.335c0.158-0.142,0.279-0.303,0.363-0.481 l-0.902-0.275c-0.037,0.083-0.096,0.156-0.174,0.221s-0.166,0.114-0.264,0.151c-0.1,0.037-0.203,0.055-0.314,0.055 c-0.174,0-0.332-0.046-0.475-0.139c-0.143-0.092-0.256-0.218-0.34-0.378c-0.086-0.159-0.129-0.343-0.129-0.55 c0-0.212,0.043-0.398,0.125-0.558c0.082-0.16,0.195-0.284,0.34-0.372s0.305-0.132,0.479-0.132c0.156,0,0.299,0.036,0.428,0.107 s0.23,0.173,0.309,0.307l0.902-0.276c-0.137-0.275-0.346-0.498-0.625-0.668c-0.281-0.169-0.617-0.255-1.006-0.255 c-0.391,0-0.729,0.084-1.012,0.252c-0.285,0.169-0.506,0.392-0.658,0.671c-0.154,0.279-0.23,0.587-0.23,0.924 c0,0.244,0.045,0.479,0.133,0.701c0.09,0.223,0.217,0.421,0.383,0.596s0.365,0.311,0.6,0.408s0.498,0.146,0.791,0.146 C79.028,36.34,79.266,36.3,79.481,36.22 M84.317,34.045c0-0.178-0.016-0.349-0.047-0.515c-0.031-0.165-0.09-0.315-0.172-0.449 c-0.084-0.134-0.197-0.24-0.346-0.319c-0.146-0.08-0.336-0.12-0.57-0.12c-0.271,0-0.521,0.064-0.75,0.191 c-0.23,0.127-0.412,0.304-0.545,0.531v-2.12h-0.922v5.026h0.922v-2.083c0.047-0.144,0.117-0.27,0.217-0.379 c0.1-0.11,0.209-0.197,0.334-0.26s0.242-0.094,0.352-0.094c0.188,0,0.336,0.067,0.443,0.203c0.109,0.136,0.162,0.342,0.162,0.618 v1.994h0.922V34.045z M87.506,36.042c0.262-0.199,0.393-0.475,0.393-0.827c0-0.217-0.051-0.388-0.152-0.512 c-0.1-0.124-0.25-0.229-0.451-0.315c-0.199-0.086-0.443-0.169-0.732-0.251c-0.143-0.045-0.264-0.086-0.361-0.121 c-0.1-0.037-0.172-0.078-0.221-0.126c-0.049-0.047-0.072-0.114-0.072-0.2c0-0.095,0.027-0.168,0.078-0.22 c0.055-0.052,0.123-0.09,0.207-0.112c0.086-0.022,0.176-0.033,0.273-0.033c0.17,0,0.338,0.033,0.502,0.1 c0.166,0.066,0.34,0.171,0.523,0.313l0.371-0.585c-0.188-0.179-0.396-0.309-0.625-0.389c-0.23-0.08-0.473-0.121-0.73-0.121 c-0.295,0-0.551,0.048-0.768,0.143c-0.219,0.096-0.389,0.229-0.51,0.398c-0.123,0.17-0.184,0.372-0.184,0.608 c0,0.194,0.045,0.354,0.135,0.479c0.09,0.124,0.225,0.228,0.402,0.309c0.18,0.082,0.402,0.166,0.668,0.252 c0.162,0.045,0.297,0.086,0.41,0.122s0.199,0.078,0.258,0.126c0.061,0.047,0.09,0.114,0.09,0.2c0,0.124-0.053,0.217-0.162,0.279 c-0.107,0.062-0.25,0.093-0.43,0.093c-0.193,0-0.395-0.041-0.604-0.124s-0.42-0.211-0.637-0.386l-0.33,0.599 c0.203,0.198,0.443,0.348,0.723,0.448c0.281,0.101,0.574,0.151,0.883,0.151C86.893,36.34,87.244,36.24,87.506,36.042 M57.084,0 h-7.973v22.078L43.196,0H36.07l-2.396,8.941L31.279,0h-7.126l-4.491,16.761c-0.391-1.717-1.489-3.19-3.421-4.06 c2.295-1.33,2.941-4.118,2.941-5.819C19.181,3.018,16.116,0,10.187,0H0v25.416h10.63c3.247,0,5.516-0.861,7.106-2.291 c0.102-0.093,0.2-0.188,0.295-0.287l-0.691,2.578h7.126l3.248-12.118l2.396,8.941h7.126l2.396-8.941l3.247,12.118h6.231h0.895 h5.461v-7.413h1.617c7.023,0,11.188-3.629,11.188-8.883C68.272,3.866,64.479,0,57.084,0 M6.354,5.295h3.627 c2.079,0,3.135,1.11,3.135,2.497c0,1.388-1.056,2.532-3.202,2.532H6.354V5.295z M10.084,20.121H6.354v-5.295h3.798 c2.112,0,3.374,1.066,3.374,2.648C13.526,18.986,12.367,20.121,10.084,20.121 M57.895,12.708h-2.428V5.295h2.428 c2.488,0,4.197,1.327,4.197,3.707C62.092,11.381,60.348,12.708,57.895,12.708"/>
    <g>
      <defs>
        <polygon id="SVGID_1_" points="24.152,0 17.342,25.416 24.468,25.416 31.279,0 &#9;&#9;&#9;"/>
      </defs>
      <clipPath id="SVGID_2_">
        <polygon points="24.152,0 17.342,25.416 24.468,25.416 31.279,0 &#9;&#9;&#9;" transform="matrix(1, 0, 0, 1, 0, 0)" overflow="visible"/>
      </clipPath>
      <defs>
        <filter id="Adobe_OpacityMaskFilter" filterUnits="userSpaceOnUse" x="17.342" y="0" width="13.937" height="25.416">
          <feColorMatrix type="matrix" values="1 0 0 0 0  0 1 0 0 0  0 0 1 0 0  0 0 0 1 0"/>
        </filter>
      </defs>
      <mask maskUnits="userSpaceOnUse" x="17.342" y="0" width="13.937" height="25.416" id="SVGID_3_">
        <g filter="url(#Adobe_OpacityMaskFilter)">
          <linearGradient id="SVGID_4_" gradientUnits="userSpaceOnUse" x1="-369.7346" y1="316.8066" x2="-369.5852" y2="316.8066" gradientTransform="matrix(0 170.0784 170.0784 0 -53857.4336 62883.8281)">
            <stop offset="0" style="stop-color:#000000"/>
            <stop offset="0.2112" style="stop-color:#000000"/>
            <stop offset="0.3073" style="stop-color:#2E2E2E"/>
            <stop offset="0.5235" style="stop-color:#A0A0A0"/>
            <stop offset="0.6953" style="stop-color:#FFFFFF"/>
            <stop offset="1" style="stop-color:#FFFFFF"/>
          </linearGradient>
          <rect x="17.342" clip-path="url(#SVGID_2_)" fill="url(#SVGID_4_)" width="13.937" height="25.416"/>
        </g>
      </mask>
      <linearGradient id="SVGID_5_" gradientUnits="userSpaceOnUse" x1="-369.7346" y1="316.8047" x2="-369.5852" y2="316.8047" gradientTransform="matrix(0 170.0784 170.0784 0 -53857.5508 62883.8125)">
        <stop offset="0" style="stop-color:#72BCFC"/>
        <stop offset="0.2112" style="stop-color:#72BCFC"/>
        <stop offset="0.6953" style="stop-color:#72BCFC"/>
        <stop offset="1" style="stop-color:#72BCFC"/>
      </linearGradient>
      <rect x="17.342" clip-path="url(#SVGID_2_)" mask="url(#SVGID_3_)" fill="url(#SVGID_5_)" width="13.937" height="25.416"/>
    </g>
    <g>
      <defs>
        <polygon id="SVGID_6_" points="36.07,0 30.111,22.239 37.238,22.239 43.196,0 &#9;&#9;&#9;"/>
      </defs>
      <clipPath id="SVGID_7_">
        <polygon points="36.07,0 30.111,22.239 37.238,22.239 43.196,0 &#9;&#9;&#9;" transform="matrix(1, 0, 0, 1, 0, 0)" overflow="visible"/>
      </clipPath>
      <linearGradient id="SVGID_8_" gradientUnits="userSpaceOnUse" x1="-370.2346" y1="315.9531" x2="-370.0852" y2="315.9531" gradientTransform="matrix(0 -148.8189 -148.8189 0 47056.4258 -55075.7031)">
        <stop offset="0" style="stop-color:#FFFFFF"/>
        <stop offset="0.1559" style="stop-color:#FFFFFF"/>
        <stop offset="0.3551" style="stop-color:#D5C2FB"/>
        <stop offset="0.5938" style="stop-color:#A67FF7"/>
        <stop offset="0.7059" style="stop-color:#9464F5"/>
        <stop offset="1" style="stop-color:#9464F5"/>
      </linearGradient>
      <rect x="30.111" clip-path="url(#SVGID_7_)" fill="url(#SVGID_8_)" width="13.085" height="22.239"/>
    </g>
  </g>
</svg>